<?xml version="1.0" encoding="utf-8"?>
<!-- Generator: Adobe Illustrator 24.2.2, SVG Export Plug-In . SVG Version: 6.00 Build 0)  -->
<svg version="1.1" id="_x2018_лой_x5F_1" xmlns="http://www.w3.org/2000/svg" xmlns:xlink="http://www.w3.org/1999/xlink"
	 x="0px" y="0px" viewBox="0 0 3200 2000" style="enable-background:new 0 0 3200 2000;" xml:space="preserve">
<style type="text/css">
	.st0{fill:#EBF3FA;}
	.st1{fill:#DFEBFD;}
	.st2{fill:#CDE0FB;}
	.st3{opacity:0.5;fill:#C0D8FB;}
	.st4{fill:#AFCDFB;}
	.st5{opacity:0.5;fill:#AFCDFB;}
	.st6{fill:#F99746;}
	.st7{fill:#EF7E29;}
	.st8{fill:#FCECDB;}
	.st9{fill:#F7E0CB;}
	.st10{fill:#EFCBAB;}
	.st11{opacity:0.5;fill:#EFCBAB;}
	.st12{fill:#D8661A;}
	.st13{fill:#F9C29D;}
	.st14{fill:#91CECF;}
	.st15{fill:#233862;}
	.st16{fill:#2B478B;}
	.st17{fill:#FFB27D;}
	.st18{fill:#ABDDDA;}
	.st19{fill:#ED985F;}
	.st20{fill:#2C3A64;}
	.st21{fill:#6BB7BF;}
	.st22{fill:#F0B371;}
	.st23{fill:#EB9342;}
	.st24{fill:#E58435;}
	.st25{fill:#F1A34F;}
	.st26{fill:#CE732E;}
	.st27{fill:#699FF0;}
	.st28{opacity:0.4;fill:#E9F3FE;}
	.st29{opacity:0.5;fill:#FFE2CC;}
	.st30{fill:#ED975D;}
	.st31{fill:#AEC3FF;}
	.st32{fill:#8FADEF;}
	.st33{fill:#5A98E2;}
	.st34{fill:#7BABEF;}
	.st35{fill:#EAC3A2;}
	.st36{fill:#F9DDBF;}
	.st37{fill:#2E3552;}
</style>
<g>
	<path class="st0" d="M239.55,1735.51c0.65-11.4-253.77-379.91,12.45-738.54s577.53-165.38,641.39-417.73
		c79.84-315.47,476.91-404.23,673.06-246.07c259.74,209.43,658.86-68.88,1021.83,70.53c595.9,228.87,173.59,679.06,308.09,744.41
		c134.5,65.35,298.01,204.85,121.76,583.53L239.55,1735.51z"/>
	<path class="st1" d="M1437.91,698.77c-42.04-62.15-150.31-1.12-150.31-1.12s-37.41,146.8-59.27,157.48
		c-21.86,10.68,7.48-131.75,7.48-131.75c-45.71,10.88-139.88,103.76-139.88,103.76s55.08,137.43,31.26,142.4
		c-23.81,4.97-42.56-124.18-42.56-124.18c-38.42,27.52-61.26,91.17-61.26,91.17c-22.07,98.48,105.52,121.74,105.52,121.74
		s18.06,48.04,7.16,113.98l0,0c0,0-3.24,12.6-4.13,32.42l11.67-4c-0.12-3.46-0.11-6.84,0.06-10.15c-0.01-0.02-0.01-0.04,0-0.06
		c0-0.05,0.01-0.09,0.01-0.14c0.18-2.08,0.45-5.04,0.81-8.66c0,0,0-0.01,0-0.01c0-0.01,0-0.01,0-0.02
		c1.17-8.2,1.82-14.19,2.06-18.43c0-0.01,0-0.03,0-0.04c3.18-25.58,8.78-59.41,17-68.92c0,0-1.91-1.38-4.33-4.5
		c1.38,1.43,2.82,2.93,4.33,4.5c34.66,35.97,137.01,8.87,188.77-21.63c51.75-30.5,22.11-37.88-16.6-53.09
		c-38.71-15.21-99.21,13.03-121.19,9.4s1.72-22.92,39.8-32.78c38.09-9.86,69.36,20.89,131.27,6.05
		c61.9-14.84,68.93-143.25,68.93-143.25c-36.99,27.03-119.04,29.63-126.78,16.34c-7.75-13.29,102.65-49.53,118.31-59.69
		C1461.71,805.45,1479.94,760.92,1437.91,698.77z"/>
	<path class="st1" d="M2589.63,1667.96c40.63-43.71-26.07-116.68-26.07-116.68s-120.47-2.68-132.66-17.71
		c-12.2-15.03,103.44-17.82,103.44-17.82c-16.63-33.48-105.48-89.8-105.48-89.8s-96.63,67.31-104.75,49.75
		c-8.12-17.56,88.6-55.24,88.6-55.24c-28.21-24.84-81.63-31.13-81.63-31.13c-80.27,0.54-75.43,103.59-75.43,103.59
		s-33.99,22.6-87.04,25.98h0c0,0-10.34-0.25-25.87,2.61l5.19,8.33c2.66-0.71,5.28-1.31,7.87-1.77c0.02-0.01,0.03-0.01,0.05-0.01
		c0.04-0.01,0.08-0.01,0.11-0.02c1.64-0.23,3.99-0.55,6.85-0.92c0,0,0.01,0,0.01,0c0.01,0,0.01,0,0.01,0
		c6.57-0.56,11.32-1.14,14.65-1.71c0.01,0,0.02,0,0.03-0.01c20.39-2.12,47.61-3.84,56.45,0.82c0,0,0.72-1.73,2.71-4.16
		c-0.86,1.33-1.76,2.71-2.71,4.16c-21.66,33.3,17.69,107.77,50.59,142.41s33.32,10.34,38.17-22.38c4.85-32.72-27.88-74.54-29-92.23
		c-1.12-17.68,18.07-2.78,32.54,24.97c14.47,27.75-3.75,57.5,18.84,102.81s123.36,27.75,123.36,27.75
		c-27.58-23.82-44.3-86.94-35.38-95.32c8.91-8.39,56.78,70.67,67.46,80.98C2511.23,1705.52,2549,1711.67,2589.63,1667.96z"/>
	<path class="st2" d="M705.71,855.17c24.02-45.73,102.76-12.23,102.76-12.23s36.79,97.59,52.56,103.23
		c15.77,5.64-15.16-89.58-15.16-89.58c32.11,3.96,103.62,60.33,103.62,60.33s-27.21,98.23-10.53,99.82
		c16.67,1.59,19.65-88.21,19.65-88.21c28.38,15.9,48.87,57.71,48.87,57.71c22.61,65.7-62.92,91.34-62.92,91.34
		s-8.69,34.25,3.79,78.53l0,0c0,0,3.18,8.37,5.3,21.87l-8.29-1.85c-0.18-2.38-0.45-4.69-0.82-6.94c0-0.02,0-0.03-0.01-0.04
		c0-0.03-0.01-0.06-0.02-0.1c-0.28-1.41-0.69-3.41-1.21-5.86c0,0,0-0.01,0-0.01c0,0,0-0.01,0-0.01c-1.43-5.52-2.32-9.57-2.82-12.46
		c0-0.01,0-0.02,0-0.03c-4.12-17.26-10.54-39.98-16.89-45.86c0,0,1.21-1.09,2.62-3.41c-0.84,1.09-1.71,2.22-2.62,3.41
		c-20.97,27.25-93.07,16.51-130.81-0.41c-37.74-16.92-18.01-24.23,7.31-37.59c25.33-13.36,68.87,1.35,83.64-2.81
		c14.76-4.16-2.92-15.55-29.73-19.39c-26.81-3.85-45.87,19.58-89.35,14.15c-43.49-5.43-58.09-92.76-58.09-92.76
		c27.37,15.68,83.71,11.2,87.99,1.51c4.29-9.69-74.01-26.07-85.5-31.82C697.56,929.98,681.69,900.9,705.71,855.17z"/>
	<g>
		<g>
			<path class="st3" d="M2294.89,1726.85l-167.59-0.05l-88.65-0.02c-34.4-0.02-62.54-28.18-62.53-62.6l0.2-619.29
				c0-34.41,28.15-62.56,62.57-62.54l78.62,0.03l177.63,0.05c34.41,0,62.54,28.16,62.54,62.58l-0.18,619.29
				C2357.46,1698.7,2329.31,1726.85,2294.89,1726.85z"/>
			<path class="st4" d="M2330.44,1551.27l-4.45-32.59l0,0l-4.45-32.61c-1.13-8.31-5.58-15.42-11.81-20.15
				c-6.23-4.74-14.26-7.11-22.58-5.98c-0.92,0.13-1.82,0.31-2.71,0.51c3.05-4.41,4.78-9.38,5.25-14.44
				c5.66,13.57,20.53,21.5,35.26,17.97c16.34-3.91,26.5-20.47,22.59-36.81l-7.65-31.99l0,0l-7.66-32
				c-1.95-8.16-7.08-14.79-13.75-18.88s-14.89-5.67-23.06-3.71c-16.34,3.91-26.5,20.48-22.59,36.81l11.54,48.21
				c-1.75-2.51-3.9-4.8-6.45-6.76c-5.26-4.03-11.45-6.04-17.64-6.21c3.03-3.91,5.03-8.47,5.9-13.23c1.14-6.23,0.34-12.79-2.51-18.73
				c3.46-11.44,0.01-24.39-9.74-32.45l-50.72-41.92c-12.95-10.71-32.29-8.87-43,4.08c-9.9,11.98-9.05,29.41,1.38,40.43
				c-2.69-0.01-5.42,0.3-8.13,1.05l-31.74,8.68l0,0l-31.73,8.68c-11.04,3.02-19.02,11.82-21.58,22.25l-3.33-7.98l0,0l-12.68-30.35
				c-6.48-15.5-24.45-22.88-39.95-16.41s-22.89,24.45-16.41,39.95l12.68,30.35l0,0l8.13,19.45c-10.77,4.29-18.67,14.54-19.29,26.82
				l-1.66,32.85h0l-1.66,32.87c-0.42,8.38,2.63,16.18,7.88,21.99c5.25,5.81,12.69,9.63,21.08,10.05c3.58,0.18,7.05-0.3,10.31-1.29
				c-3.16,6.35-4.04,13.67-2.42,20.64c-5.63,3.25-10.29,8.27-12.95,14.71l-12.57,30.4l0,0l-12.57,30.41
				c-3.2,7.75-2.94,16.13,0.06,23.36c3,7.23,8.74,13.32,16.5,16.53c12.11,5.01,25.67,1.54,34.11-7.58c1.99,4.7,5.16,8.97,9.49,12.29
				c13.34,10.21,32.6,7.66,42.81-5.69l20-26.12l0,0l20-26.13c2.71-3.55,4.5-7.52,5.44-11.63c6.96,0.7,14.18-0.94,20.35-5.2
				l5.24-3.61l-7.26,9.48l0,0l-20,26.12c-10.21,13.34-7.66,32.6,5.69,42.81c13.34,10.21,32.6,7.66,42.81-5.69l20-26.12l0,0l20-26.13
				c0.26-0.34,0.47-0.69,0.71-1.04c1.61,2.6,3.59,4.91,5.85,6.89l-7.12,9.3c-10.21,13.34-7.66,32.6,5.69,42.81s32.6,7.66,42.81-5.69
				l40-52.25c5.1-6.66,7.01-14.82,5.98-22.58c-1.03-7.76-5-15.13-11.67-20.23c-2.28-1.75-4.74-3.09-7.3-4.1
				c0.37-0.04,0.74-0.04,1.11-0.09C2320.96,1583.39,2332.71,1567.92,2330.44,1551.27z M2055.22,1522.13l0.57-11.21
				c1.93,3.26,4.47,6.21,7.65,8.64c1.19,0.91,2.45,1.69,3.72,2.4l-13.99,9.65C2054.33,1528.65,2055.05,1525.47,2055.22,1522.13z
				 M2261.02,1494.33l5.98,43.83c-2.59-5.27-6.6-9.59-11.45-12.57c-5.91-3.63-13.03-5.26-20.26-4.23c3.13-1.9,5.97-4.37,8.32-7.44
				l17.17-22.43C2260.82,1492.43,2260.89,1493.38,2261.02,1494.33z M2191.56,1375.91l7.7,6.36l-7.92,5.46
				C2192.17,1383.93,2192.28,1379.93,2191.56,1375.91z M2198.2,1472.76c-0.78-4.75-2.66-9.17-5.41-12.96
				c2.27-0.85,4.49-1.96,6.57-3.4l24.07-16.6L2198.2,1472.76z M2218.17,1529.91c-6.45-5.39-14.82-7.85-23.02-6.94l0.65-8.22
				c1.45,1.77,3.1,3.42,5,4.87c6.76,5.18,15.04,7.06,22.9,5.93C2221.67,1526.78,2219.83,1528.26,2218.17,1529.91z M2156.65,1414.32
				c-6.71,10.1-7.05,23.72,0.23,34.28c0.13,0.19,0.29,0.36,0.42,0.55c-2.22,0.85-4.33,1.93-6.28,3.25c1.39-4.35,1.8-8.92,1.21-13.36
				c-1.03-7.76-5-15.13-11.67-20.24c-0.03-0.02-0.06-0.04-0.09-0.06L2156.65,1414.32z M2126.25,1487.76l11.78-15.39
				c-0.17,0.95-0.3,1.91-0.38,2.89l-2.23,28.25c-4.41-3.99-9.82-6.53-15.51-7.47L2126.25,1487.76L2126.25,1487.76z M2071.11,1616.84
				l3.46-8.37c2.52-6.1,2.88-12.57,1.46-18.58c0.7-0.4,1.4-0.81,2.07-1.28l54.17-37.36c0.35-0.24,0.66-0.51,1-0.77
				c0.73,2.97,1.9,5.78,3.44,8.36l-9.64,6.65c-6.49,4.48-10.67,11.07-12.34,18.22c-10.18-0.99-20.64,3.1-27.28,11.77
				L2071.11,1616.84z M2214.8,1579.19l1.69,7.06c-2.72-1.22-5.57-2.02-8.46-2.4L2214.8,1579.19z M2279.31,1586.32l-2.35-9.84l0,0
				l-0.45-1.87c3.31,4.06,7.61,7.23,12.48,9.17C2285.66,1584.1,2282.39,1584.94,2279.31,1586.32z M2094.32,1428.98l-16.57,21.65l0,0
				l-20,26.12c-0.09,0.12-0.16,0.25-0.25,0.37l1.05-20.71c0.03-0.53,0-1.05,0-1.58c0.94-0.29,1.88-0.62,2.8-1.01
				c12.44-5.19,19.62-17.79,18.65-30.57C2084.18,1426.32,2089.11,1428.33,2094.32,1428.98z"/>
			<path class="st5" d="M2127.3,1726.8l-88.65-0.02c-34.4-0.02-62.54-28.18-62.53-62.6l0.2-619.29c0-34.41,28.15-62.56,62.57-62.54
				l78.62,0.03c6.49,11.13,10.27,24.43,10.26,38.68l-0.21,699.49C2127.55,1722.66,2127.47,1724.74,2127.3,1726.8z"/>
			<path class="st6" d="M2353.55,1011.62l-238.03-0.07l-135.09-0.05c-6.7,0.01-12.16-5.47-12.16-12.17l0.01-58.32
				c0-6.68,5.47-12.16,12.17-12.16l134.9,0.04c0.01,0,0.01,0,0.03,0l238.19,0.07c6.68,0,12.16,5.47,12.16,12.17l-0.01,58.32
				C2365.72,1006.15,2360.25,1011.63,2353.55,1011.62z"/>
			<path class="st7" d="M2115.52,1011.55l-135.09-0.05c-6.7,0.01-12.16-5.47-12.16-12.17l0.01-58.32c0-6.68,5.47-12.16,12.17-12.16
				l134.9,0.04c0.01,0,0.01,0,0.03,0c6.67,0.01,12.13,5.48,12.13,12.17l-0.02,58.32
				C2127.49,1006.02,2122.13,1011.45,2115.52,1011.55z"/>
		</g>
	</g>
	<g>
		<g>
			<g>
				<g>
					<path class="st8" d="M1204.43,954.36v402.27c0,24.68-20.19,44.89-44.89,44.89h-239.1c-6.4,0-12.49-1.35-18.02-3.8
						c-15.78-6.97-26.87-22.8-26.87-41.08V954.36c0-24.69,20.2-44.89,44.89-44.89h239.1
						C1184.24,909.48,1204.43,929.67,1204.43,954.36z"/>
					<path class="st9" d="M1098.52,1060.75c-25.27-9.49-38.05-37.66-28.57-62.92c9.48-25.26,37.65-38.06,62.92-28.57
						c25.26,9.48,38.05,37.66,28.57,62.92C1151.95,1057.44,1123.78,1070.23,1098.52,1060.75z"/>
					<path class="st10" d="M1161.43,1032.18l-91.48-34.35c9.48-25.26,37.65-38.06,62.92-28.57
						C1158.13,978.75,1170.92,1006.92,1161.43,1032.18z"/>
					<path class="st9" d="M933.4,1052.86c-20.91-17.07-24.01-47.85-6.95-68.75c17.06-20.9,47.84-24.02,68.75-6.95
						c20.9,17.06,24.01,47.85,6.95,68.75C985.09,1066.81,954.3,1069.92,933.4,1052.86z"/>
					<path class="st10" d="M1002.15,1045.91l-75.7-61.8c17.06-20.9,47.84-24.02,68.75-6.95
						C1016.1,994.22,1019.21,1025,1002.15,1045.91z"/>
					<path class="st9" d="M1098.52,1358.8c-25.27-9.49-38.05-37.66-28.57-62.92c9.48-25.26,37.65-38.06,62.92-28.57
						c25.26,9.48,38.05,37.66,28.57,62.92C1151.95,1355.49,1123.78,1368.29,1098.52,1358.8z"/>
					<path class="st10" d="M1161.43,1333.56l-91.48-34.35c9.48-25.26,37.65-38.06,62.92-28.57
						C1158.13,1280.12,1170.92,1308.3,1161.43,1333.56z"/>
					<path class="st9" d="M933.4,1350.91c-20.91-17.07-24.01-47.85-6.95-68.75c17.06-20.9,47.84-24.02,68.75-6.95
						c20.9,17.06,24.01,47.85,6.95,68.75C985.09,1364.86,954.3,1367.97,933.4,1350.91z"/>
					<path class="st10" d="M1002.15,1347.28l-75.7-61.8c17.06-20.9,47.84-24.02,68.75-6.95
						C1016.1,1295.59,1019.21,1326.38,1002.15,1347.28z"/>
					<g>
						<path class="st9" d="M1136.62,1213.73c-24.39,11.56-53.52,1.15-65.08-23.23s-1.17-53.52,23.23-65.08
							c24.38-11.55,53.52-1.15,65.08,23.23C1171.4,1173.04,1161,1202.18,1136.62,1213.73z"/>
						<path class="st10" d="M1159.85,1148.66l-88.3,41.85c-11.55-24.38-1.17-53.52,23.23-65.08
							C1119.15,1113.88,1148.29,1124.28,1159.85,1148.66z"/>
					</g>
					<path class="st9" d="M918.94,1151.43c10.03-25.06,38.47-37.23,63.52-27.21c25.05,10.03,37.24,38.46,27.21,63.52
						c-10.03,25.05-38.47,37.23-63.52,27.21C921.1,1204.92,908.91,1176.47,918.94,1151.43z"/>
					<path class="st10" d="M946.15,1214.94l36.31-90.72c25.05,10.03,37.24,38.46,27.21,63.52
						C999.64,1212.79,971.19,1224.97,946.15,1214.94z"/>
				</g>
			</g>
			<path class="st11" d="M1204.43,1009.42v350.05c0,23.12-18.48,42.05-41.07,42.05H944.57c-5.85,0-11.43-1.27-16.48-3.56v-340.08
				c0-13.91,5.8-26.5,15.05-35.35c3.42-3.28,7.31-6.04,11.56-8.18c6.27-3.15,13.3-4.92,20.72-4.92H1204.43z"/>
		</g>
		<g>
			<g>
				<path class="st8" d="M935.9,1458.83v-402.27c0-24.69,20.2-44.89,44.89-44.89h239.1c24.69,0,44.89,20.2,44.89,44.89v402.27
					c0,24.69-20.2,44.89-44.89,44.89h-239.1C956.1,1503.72,935.9,1483.52,935.9,1458.83z"/>
				<path class="st9" d="M1158.86,1162.95c-25.27-9.49-38.05-37.66-28.57-62.92c9.48-25.26,37.65-38.05,62.92-28.57
					c25.26,9.48,38.05,37.66,28.57,62.92C1212.29,1159.64,1184.11,1172.43,1158.86,1162.95z"/>
				<path class="st10" d="M1221.77,1134.38l-91.48-34.35c9.48-25.26,37.65-38.05,62.92-28.57
					C1218.46,1080.95,1231.26,1109.13,1221.77,1134.38z"/>
				<path class="st9" d="M993.74,1155.06c-20.91-17.07-24.01-47.85-6.95-68.75s47.84-24.02,68.75-6.95
					c20.9,17.06,24.01,47.85,6.95,68.75S1014.64,1172.12,993.74,1155.06z"/>
				<path class="st10" d="M1062.49,1148.11l-75.7-61.8c17.06-20.9,47.84-24.02,68.75-6.95
					C1076.44,1096.42,1079.55,1127.21,1062.49,1148.11z"/>
				<path class="st9" d="M1158.86,1461c-25.27-9.49-38.05-37.66-28.57-62.92c9.48-25.26,37.65-38.06,62.92-28.57
					c25.26,9.48,38.05,37.66,28.57,62.92C1212.29,1457.7,1184.11,1470.49,1158.86,1461z"/>
				<path class="st10" d="M1221.77,1435.76l-91.48-34.35c9.48-25.26,37.65-38.06,62.92-28.57
					C1218.46,1382.33,1231.26,1410.5,1221.77,1435.76z"/>
				<path class="st9" d="M993.74,1453.11c-20.91-17.07-24.01-47.85-6.95-68.75s47.84-24.02,68.75-6.95
					c20.9,17.06,24.01,47.85,6.95,68.75S1014.64,1470.17,993.74,1453.11z"/>
				<path class="st10" d="M1062.49,1449.48l-75.7-61.8c17.06-20.9,47.84-24.02,68.75-6.95
					C1076.44,1397.8,1079.55,1428.58,1062.49,1449.48z"/>
				<g>
					<path class="st9" d="M1196.96,1315.94c-24.39,11.56-53.52,1.15-65.08-23.23c-11.55-24.38-1.17-53.52,23.23-65.08
						c24.38-11.55,53.52-1.15,65.08,23.23C1231.74,1275.24,1221.34,1304.38,1196.96,1315.94z"/>
					<path class="st10" d="M1220.18,1250.86l-88.3,41.85c-11.55-24.38-1.17-53.52,23.23-65.08
						C1179.49,1216.08,1208.63,1226.48,1220.18,1250.86z"/>
				</g>
				<path class="st9" d="M979.28,1253.63c10.03-25.06,38.47-37.23,63.52-27.21c25.05,10.03,37.24,38.46,27.21,63.52
					c-10.03,25.05-38.47,37.23-63.52,27.21C981.43,1307.12,969.25,1278.68,979.28,1253.63z"/>
				<path class="st10" d="M1006.48,1317.15l36.31-90.72c25.05,10.03,37.24,38.46,27.21,63.52
					C1059.97,1314.99,1031.53,1327.17,1006.48,1317.15z"/>
			</g>
		</g>
		<g>
			<rect x="852.23" y="1172.13" class="st7" width="375.53" height="560.43"/>
			<rect x="904.54" y="1172.13" class="st6" width="375.53" height="560.44"/>
			<polygon class="st12" points="904.54,1204.65 886.54,1232.64 852.23,1232.64 852.23,1172.13 904.54,1172.13 			"/>
			<polygon class="st6" points="872.46,1216.29 820.15,1216.29 852.23,1172.13 904.54,1172.13 			"/>
			<polygon class="st11" points="1098.22,1734.35 904.54,1734.35 904.54,1197.67 1098.22,1216.29 			"/>
			<polygon class="st7" points="1280.07,1216.29 1249.6,1232.64 922.64,1232.64 904.54,1204.65 904.54,1172.13 			"/>
			<polygon class="st6" points="1306.6,1216.29 931.07,1216.29 904.54,1172.13 1280.07,1172.13 			"/>
		</g>
	</g>
	<g>
		<g>
			<path class="st13" d="M2506.58,1152.7c0,0-0.18-1.59-1.99-3.74c-1.13-2.29-2.33-5.06-2.38-6.62c-0.1-2.97-3.42-4.13-4.79-1.66
				c-0.45,0.83-0.68,1.76-0.71,2.76c-5.32-2.42-13.5-4.6-26.09-5.46c0,0-9.7-1.07-3.41,7.15c4.2,5.49,7.83,5.53,13.88,13.18
				s15.13,11.87,22.04,9.85l8.07,0.96l5.25-12.87L2506.58,1152.7z"/>
			<path class="st14" d="M2766.68,1067.48c0,0-7.95,87.52-121.19,124.47c-30.57,9.98-144.92-20.66-144.92-20.66
				s0.65-15.06,9.93-18.84c0,0,107.13-6.58,116.14-2.16c8,3.92,76.4-66.51,98.51-77.85S2766.68,1067.48,2766.68,1067.48z"/>
		</g>
		<path class="st15" d="M2906.45,1669.77c0,0,13.55,12.37,10.91,21.16s-14.88,14.65-16.53,25.39c-1.65,10.74-8.26,16.6-14.21,16.6
			s-28.37,0-28.37,0s-4.38-7.56,6.2-9.84c10.58-2.28,14.57-14.9,13.91-26.62c-0.66-11.72,0.99-27.34,0.99-27.34l22.48-5.21
			L2906.45,1669.77z"/>
		<path class="st16" d="M2906.45,1662.01c-2.48,7.33-29.76,18.07-29.76,18.07s-14.87-23.43-62.48-107.42
			c-4.1-7.24-8.38-15.17-12.79-23.63c-46.75-89.81-107.22-239.06-107.22-239.06l115.55-32.22c0,0,5.45,46.38,6.44,69.82
			c0.61,14.32,8.75,44.92,19.1,71.66c6.58,17.01,14.07,32.45,21.07,41.13C2888.24,1499.88,2906.45,1662.01,2906.45,1662.01z"/>
		<path class="st15" d="M2835.29,1419.21c-7.26,36.84-20.59,98.52-33.88,129.81c-46.75-89.81-107.22-239.06-107.22-239.06
			l115.55-32.22c0,0,5.45,46.38,6.44,69.82C2816.8,1361.88,2824.94,1392.48,2835.29,1419.21z"/>
		<path class="st15" d="M2740.16,1701.76c0,0,2.43,28.15-3.52,31.08l-76.16-0.16c0,0,0-8.79,12.23-10.74
			c12.23-1.95,33.72-9.12,37.36-25.07C2713.71,1680.93,2740.16,1701.76,2740.16,1701.76z"/>
		<path class="st16" d="M2675.86,1304.1c0,0,4.02,49.35,8.74,108.66c6.42,80.58,14.13,179.55,14.9,198.3
			c1.32,32.56,6.62,84.64,6.62,84.64s12.56,12.37,37.69,7.16c0,0,22.39-74.35,28.79-153.01c0.1-1.29,0.2-2.59,0.3-3.89
			c5.95-80.08,15.2-248.7,15.2-248.7L2675.86,1304.1z"/>
		<path class="st17" d="M2780.98,1037.05c0,0-70.79,21.57-62.46,10.99c-1.09-6.32-4.24-23.27-4.73-27.92
			c-1.33-10.73-1.33-16.81-1.33-16.81l21.06-16.57l19.98-15.85C2751.93,1015.48,2780.98,1037.05,2780.98,1037.05z"/>
		<path class="st18" d="M2844.95,1397.48c-57.44,38.79-173.51,27.71-174.38,26.96c-1.93-24.68-3.03-65.38-3.63-103.05
			c-0.75-46.8-0.76-88.9-0.7-89.79c0,0,0.04-1.42,0.09-3.81c0.19-7.61,0.65-25.04,1.15-38.03c0.09-2.43,0.18-4.69,0.27-6.72
			c0.01-0.11,0.01-0.22,0.02-0.33c0.36-5.83,3.93-21.43,8.95-39.6c7.36-26.64,17.82-58.78,25.85-73.73
			c4.12-7.67,17.97-29.87,17.97-29.87c9.78,1.93,16.83-0.96,27.15-5.99c11.29-5.45,23.46-11.33,25.42-9.84
			c14.78,10.8,24.77,35.08,30.09,66.09C2806.25,1107.63,2847.79,1395.56,2844.95,1397.48z"/>
		<path class="st19" d="M2753.86,987.94c0,0-13.8,25.15-40.07,32.18c-1.33-10.73-1.33-16.81-1.33-16.81l21.06-16.57L2753.86,987.94z
			"/>
		<path class="st17" d="M2702.86,1002.59c0,0,52.08,8.52,56.97-23.5c4.89-32.02,14.9-52.48-18.14-59.28
			c-33.05-6.79-41.39,4.47-45.66,14.76C2691.75,944.87,2689.43,999.55,2702.86,1002.59z"/>
		<path class="st20" d="M2778.76,915.98c0.47-0.54,1.56-0.98,3.99-1.11c0,0-1.94-1.21-4.53-1.28c-0.51-3.38-2.3-9.35-8.11-10.8
			c0,0,3.12,1.66,3.53,5.25c-6.73-6.91-21.14-11.94-61.06-8.79c-52.61,4.15-35.27,37.83-28.46,41.85
			c6.81,4.02,23.95-6.99,36.64-5.99c12.69,1.01,15.1,19.34,19.41,21.86c4.3,2.52,2.61-1.93,8.44-4.57c5.82-2.63,6.38,7.02,4.7,13.29
			c-1.68,6.27,6.32,14.55,6.32,14.55s0,0,8.09-8.71c8.09-8.71,15.71-45.6,12.03-53.46C2779.41,917.39,2779.09,916.69,2778.76,915.98
			z"/>
		<path class="st14" d="M2666.94,1321.38c-0.75-46.8-0.76-88.9-0.7-89.79c0,0,0.04-1.42,0.09-3.81
			c45.04-55.74,103.05-113.62,103.05-113.62S2781.96,1277.65,2666.94,1321.38z"/>
		<path class="st14" d="M2728.03,1104.64c-0.62,1-14.88,85.2-51.48,86.14c-3.57,0.09-6.56-0.27-9.08-1.03
			c0.09-2.43,0.18-4.69,0.28-6.72c0.01-0.11,0.01-0.22,0.02-0.33c0.36-5.83,3.93-21.43,8.95-39.6
			C2691.68,1140.03,2709.2,1126.31,2728.03,1104.64z"/>
		<path class="st21" d="M2773.24,1023.68c0,0-4.34-12.62-7.88-14.04c0,0-49.18,11.35-65.59,65.7
			C2699.78,1075.33,2718.92,1041.98,2773.24,1023.68z"/>
		<g>
			<g>
				<path class="st22" d="M2674.91,1430.52l-97.93,13.62l-51.8,7.21c-20.1,2.79-38.84-11.37-41.64-31.48l-50.33-361.87
					c-2.8-20.1,11.35-38.84,31.47-41.64l45.94-6.39l103.79-14.44c20.1-2.8,38.84,11.36,41.64,31.47l50.34,361.87
					C2709.18,1408.97,2695.02,1427.72,2674.91,1430.52z"/>
				<path class="st23" d="M2681.38,1325.03l-5.25-18.68l0,0l-5.25-18.69c-1.34-4.76-4.51-8.55-8.54-10.81s-8.91-3-13.68-1.65
					c-0.53,0.15-1.04,0.33-1.54,0.52c1.42-2.82,2.03-5.87,1.89-8.86c4.41,7.47,13.75,10.89,22.07,7.63
					c9.23-3.62,13.82-14.12,10.2-23.35l-7.08-18.07l0,0l-7.08-18.08c-1.81-4.61-5.34-8.06-9.57-9.91c-4.23-1.85-9.16-2.1-13.78-0.29
					c-9.23,3.62-13.82,14.13-10.2,23.35l10.67,27.23c-1.23-1.33-2.67-2.49-4.32-3.42c-3.4-1.93-7.18-2.6-10.81-2.19
					c1.45-2.53,2.25-5.36,2.37-8.21c0.16-3.73-0.84-7.5-2.99-10.74c1.09-6.96-1.98-14.25-8.33-18.17l-33.05-20.36
					c-8.44-5.2-19.59-2.55-24.79,5.89c-4.81,7.81-2.89,17.92,4.1,23.51c-1.57,0.21-3.14,0.62-4.67,1.27l-17.84,7.66l0,0l-17.83,7.66
					c-6.21,2.67-10.15,8.46-10.8,14.76l-2.6-4.39l0,0l-9.88-16.7c-5.05-8.53-16.15-11.38-24.68-6.33s-11.38,16.15-6.33,24.68
					l9.88,16.7l0,0l6.33,10.71c-5.94,3.38-9.73,10.01-9.09,17.24l1.71,19.33l0,0l1.71,19.34c0.44,4.93,2.85,9.24,6.39,12.21
					c3.54,2.97,8.2,4.59,13.14,4.16c2.11-0.19,4.09-0.75,5.92-1.59c-1.33,3.97-1.25,8.32,0.26,12.26c-3.03,2.36-5.34,5.67-6.37,9.65
					l-4.87,18.79l0,0l-4.87,18.79c-1.24,4.79-0.41,9.66,1.94,13.64c2.34,3.98,6.19,7.07,10.99,8.32c7.49,1.94,15.13-1.19,19.31-7.21
					c1.55,2.59,3.75,4.82,6.55,6.41c8.63,4.88,19.67,1.82,24.55-6.81l9.56-16.89l0,0l9.56-16.9c1.3-2.29,2.02-4.76,2.23-7.24
					c4.12-0.16,8.21-1.71,11.47-4.7l2.77-2.54l-3.47,6.13l0,0l-9.56,16.89c-4.88,8.63-1.82,19.67,6.81,24.55
					c8.63,4.88,19.67,1.82,24.55-6.81l9.56-16.89l0,0l9.56-16.9c0.12-0.22,0.22-0.44,0.33-0.66c1.15,1.39,2.5,2.58,3.98,3.55
					l-3.4,6.02c-4.88,8.63-1.82,19.67,6.81,24.55c8.63,4.88,19.67,1.82,24.55-6.81l19.11-33.79c2.44-4.31,2.89-9.23,1.66-13.68
					c-1.23-4.45-4.15-8.43-8.47-10.87c-1.48-0.83-3.02-1.42-4.6-1.8c0.21-0.05,0.43-0.09,0.64-0.15
					C2678.45,1344.57,2684.06,1334.58,2681.38,1325.03z M2518.2,1330.42l-0.58-6.6c1.39,1.75,3.12,3.27,5.17,4.43
					c0.77,0.44,1.57,0.79,2.37,1.1l-7.39,6.78C2518.2,1334.3,2518.37,1332.39,2518.2,1330.42z M2636.18,1297.41l7.06,25.13
					c-1.94-2.87-4.64-5.07-7.71-6.41c-3.75-1.64-8.04-2.01-12.18-0.82c1.67-1.37,3.13-3.04,4.25-5.03l8.2-14.5
					C2635.91,1296.32,2636.03,1296.87,2636.18,1297.41z M2585.95,1233.88l5.01,3.09l-4.18,3.84
					C2586.96,1238.51,2586.7,1236.17,2585.95,1233.88z M2597.72,1289.93c-0.84-2.71-2.3-5.14-4.22-7.13
					c1.26-0.68,2.46-1.51,3.56-2.52l12.71-11.66L2597.72,1289.93z M2614.04,1321.69c-4.21-2.62-9.3-3.38-14.02-2.18l-0.29-4.86
					c0.99,0.92,2.09,1.74,3.32,2.44c4.37,2.47,9.36,2.9,13.86,1.6C2615.83,1319.58,2614.88,1320.6,2614.04,1321.69z
					 M2568.68,1259.17c-3.1,6.45-2.19,14.43,2.93,20.01c0.09,0.1,0.2,0.19,0.29,0.29c-1.23,0.68-2.37,1.48-3.4,2.41
					c0.46-2.65,0.32-5.36-0.38-7.91c-1.23-4.45-4.15-8.43-8.47-10.87c-0.02-0.01-0.04-0.02-0.06-0.03L2568.68,1259.17z
					 M2556.9,1304.55l5.63-9.95c-0.02,0.57-0.02,1.14,0.01,1.72l1,16.69c-2.9-1.97-6.27-3.01-9.67-3.1L2556.9,1304.55
					L2556.9,1304.55z M2535.19,1384.47l1.34-5.17c0.98-3.77,0.66-7.58-0.66-10.97c0.38-0.29,0.75-0.59,1.11-0.92l28.61-26.24
					c0.18-0.17,0.34-0.35,0.52-0.53c0.67,1.68,1.58,3.22,2.69,4.6l-5.09,4.67c-3.43,3.14-5.34,7.33-5.72,11.65
					c-6.03,0.25-11.81,3.49-14.98,9.1L2535.19,1384.47z M2616.09,1350.76l1.56,3.99c-1.69-0.49-3.42-0.73-5.14-0.71L2616.09,1350.76
					z M2654.36,1349.68l-2.18-5.56l0,0l-0.41-1.06c2.26,2.1,5.03,3.6,8.04,4.34C2657.89,1347.86,2656.04,1348.62,2654.36,1349.68z
					 M2533.45,1272.81l-7.92,14l0,0l-9.55,16.89c-0.04,0.08-0.08,0.16-0.12,0.24l-1.07-12.19c-0.03-0.31-0.09-0.62-0.13-0.92
					c0.53-0.25,1.04-0.51,1.55-0.82c6.84-4.05,10.02-11.99,8.41-19.38C2527.31,1272.08,2530.35,1272.85,2533.45,1272.81z"/>
				<path class="st18" d="M2650.93,1007.83l-139.09,19.34l-78.94,10.97c-3.91,0.55-7.55-2.21-8.09-6.12l-4.74-34.08
					c-0.54-3.9,2.21-7.55,6.12-8.09l78.83-10.97c0.01,0,0.01,0,0.02,0l139.18-19.36c3.91-0.54,7.55,2.21,8.09,6.12l4.74,34.08
					C2657.59,1003.64,2654.84,1007.29,2650.93,1007.83z"/>
			</g>
		</g>
		<g>
			<path class="st13" d="M2557.49,1219.25c0,0-0.61-1.48-2.94-3.05c-1.72-1.89-3.64-4.22-4.12-5.71c-0.91-2.83-4.43-3.03-5.06-0.28
				c-0.21,0.92-0.17,1.88,0.08,2.85c-5.78-0.86-14.24-0.71-26.58,1.94c0,0-9.62,1.64-1.31,7.81c5.55,4.12,9.05,3.16,16.97,8.84
				c7.92,5.69,17.81,7.24,23.9,3.4l8.03-1.3l1.5-13.82L2557.49,1219.25z"/>
			<path class="st18" d="M2784.06,1065.7c0,0,16.46,86.33-82.23,153.03c-26.64,18.01-145.01,20.05-145.01,20.05
				s-3.52-14.66,4.36-20.85c0,0,101.17-35.83,111.06-34.06c8.77,1.57,55.14-84.97,73.26-101.97
				C2763.63,1064.91,2784.06,1065.7,2784.06,1065.7z"/>
		</g>
	</g>
	<g>
		<g>
			<path class="st19" d="M653.43,1208.88c-7.44-23.89-39.79-28.37-52.8-7c-2.34,3.84-3.82,8.26-3.95,13.32
				c-0.72,28.01,54.52,136.41,61.85,146c13.35,17.46,93.91,59.44,93.91,59.44l17.12-2.5c0,0-9.68-6.08-19.7-16.09
				c-20.7-20.67-50.88-54.26-56.41-58.92C683.97,1335.16,667.56,1254.24,653.43,1208.88z"/>
			<g>
				<g>
					<path class="st8" d="M1132.84,1730.86H764.7c-22.59,0-41.08-18.49-41.08-41.08v-218.82c0-22.59,18.49-41.08,41.08-41.08h368.14
						c22.59,0,41.08,18.49,41.08,41.08v218.82C1173.92,1712.38,1155.43,1730.86,1132.84,1730.86z"/>
					<path class="st9" d="M862.06,1526.82c-8.68,23.13-34.46,34.82-57.58,26.14c-23.12-8.68-34.83-34.45-26.14-57.58
						c8.68-23.12,34.46-34.82,57.58-26.14C859.03,1477.92,870.74,1503.7,862.06,1526.82z"/>
					<path class="st10" d="M835.92,1469.24l-31.44,83.72c-23.12-8.68-34.83-34.45-26.14-57.58
						C787.02,1472.27,812.8,1460.56,835.92,1469.24z"/>
					
						<ellipse transform="matrix(0.3366 -0.9416 0.9416 0.3366 -1009.2681 1866.7218)" class="st9" cx="820.2" cy="1649.65" rx="44.71" ry="44.71"/>
					<path class="st10" d="M848.48,1615.01l-56.55,69.28c-19.13-15.61-21.98-43.78-6.36-62.92
						C801.18,1602.25,829.35,1599.4,848.48,1615.01z"/>
					<path class="st9" d="M1134.83,1526.82c-8.68,23.13-34.46,34.82-57.58,26.14c-23.12-8.68-34.83-34.45-26.14-57.58
						c8.68-23.12,34.46-34.82,57.58-26.14S1143.51,1503.7,1134.83,1526.82z"/>
					<path class="st10" d="M1108.7,1469.24l-31.44,83.72c-23.12-8.68-34.83-34.45-26.14-57.58
						C1059.8,1472.27,1085.58,1460.56,1108.7,1469.24z"/>
					<path class="st9" d="M1127.6,1677.93c-15.08,18.48-41.86,21.76-60.91,7.89c-0.68-0.47-1.34-0.99-2-1.53
						c-19.13-15.61-21.98-43.77-6.36-62.91c15.61-19.13,43.78-21.98,62.91-6.36c0.65,0.54,1.28,1.07,1.9,1.64
						C1140.55,1632.53,1142.69,1659.45,1127.6,1677.93z"/>
					<path class="st10" d="M1123.15,1616.65l-56.45,69.16c-0.68-0.47-1.34-0.99-2-1.53c-19.13-15.61-21.98-43.77-6.36-62.91
						c15.61-19.13,43.78-21.98,62.91-6.36C1121.9,1615.55,1122.53,1616.09,1123.15,1616.65z"/>
					<g>
						<path class="st9" d="M1002.07,1491.95c10.58,22.32,1.06,48.98-21.26,59.56c-22.31,10.58-48.98,1.07-59.56-21.26
							c-10.57-22.31-1.06-48.98,21.26-59.56C964.82,1460.12,991.49,1469.64,1002.07,1491.95z"/>
						<path class="st10" d="M942.51,1470.69l38.3,80.81c-22.31,10.58-48.98,1.07-59.56-21.26
							C910.68,1507.94,920.2,1481.27,942.51,1470.69z"/>
					</g>
					<path class="st9" d="M945.05,1691.16c-22.94-9.18-34.07-35.21-24.9-58.13c9.17-22.92,35.19-34.08,58.13-24.9
						c22.92,9.17,34.07,35.21,24.9,58.13C994,1689.19,967.97,1700.34,945.05,1691.16z"/>
					<path class="st10" d="M1003.17,1666.27l-83.03-33.23c9.17-22.92,35.19-34.08,58.13-24.9
						C1001.2,1617.31,1012.35,1643.34,1003.17,1666.27z"/>
				</g>
			</g>
			<path class="st16" d="M676.82,1071.86c0.45-1.8-39.08,17.87-41.09,20.09c-18.54,20.56-13.25,47.4-2.64,47.66
				c6.8,0.17,5.48,11.48,5.48,11.48l75.79-32.06C714.36,1119.02,705.24,1065.81,676.82,1071.86z"/>
			<path class="st16" d="M686.15,1076.01c0,0,2.71-29.53-30.28-29.53c0,0,10,2.71,15.17,8.13c0,0-21.04-12.35-43.94,6.63
				s-8.67,66.58-15.63,75.62s-34.08,10.85-30.76,40.07c3.31,29.22,86.06,65.83,80.74,90.01c0,0,32.43-47.67,9.24-69.42
				c0,0,11.3,10.64,12.45,23.3c0,0,3.07-24.71-12.65-32.61c-13.91-6.99-25.31-32.57-24.1-37.14
				C647.59,1146.51,686.15,1076.01,686.15,1076.01z"/>
			<path class="st16" d="M593.49,1714.42l-16.4-2.41c0,0-55.15-43.82-63.36-125.6c-0.84-8.32-7.14-37.58-13.09-47.22
				c-5.86-9.5-15.9-27.45-26.93-47.6c-19.88-36.29-43.03-79.68-50.98-93.5c-25.3-44.05-13.11-73.67-13.11-73.67
				s70.58-6.98,89.93-23.9l6.97,10.74c0,0,15.29,67.7,14.57,68.02c0.75,2.3,1.52,4.65,2.3,7.03
				c12.07,37.25,25.95,83.81,33.52,121.73c4.25,21.34,5.39,63.61,6.54,71.85C570.28,1628.47,593.49,1714.42,593.49,1714.42z"/>
			<path class="st15" d="M627.89,1735.17h-68.43c0,0-1.64-10.43,1.93-18.34c3.42-7.59,8.31-7.83,0.62-19.73
				c4.35,4.48,18.33,6.33,28.22,5c1.21,1.96,7.81,15.15,11.86,18.06C606.58,1723.36,626.52,1722.22,627.89,1735.17z"/>
			<path class="st15" d="M473.71,1491.59c-19.88-36.29-43.03-79.68-50.98-93.5c-25.3-44.05-13.11-73.67-13.11-73.67
				s34.21-11.29,53.56-28.21C463.18,1296.2,478.99,1433.93,473.71,1491.59z"/>
			<path class="st16" d="M475.39,1329.5l0.23-12.8c-25.5,3.22-87.92-30.47-87.92-30.47s-26.68,17.74-30.33,68.41
				c-1.78,24.73-13.06,129.32-14.31,160.55c-0.46,11.32-11.59,39.1-15.55,46.47c-38.91,72.39-18.56,170.76-18.56,170.76l9.04-2.3
				c0,0,32.9-101.97,54.4-146.08c3.65-7.48,26.35-43.16,34.75-63.23c15.88-37.94,31.3-88.01,42.3-126.77
				C450.22,1394.18,475.39,1329.5,475.39,1329.5z"/>
			<path class="st17" d="M624.61,1244.09c-41.68-9.57-15.05-68.14-12.64-67.11c5.77-1.18,18.46-11.32,29.81-31.12l1.53,1.33
				l25.6,22.45c0,0-5.92,8.73-10.9,17.28c-3.89,6.69-7.2,13.29-6.67,15.55C653.4,1204.08,635.73,1246.64,624.61,1244.09z"/>
			<path class="st14" d="M650.93,1200.58c0,0,7.33,14.46,11.24,26.99c3.91,12.53,13.69,52.37,13.69,52.37s-20.18,23.03-48.25,21.68
				c0,0-15.09-23.63-9.77-44.96C623.16,1235.33,650.93,1200.58,650.93,1200.58z"/>
			<path class="st19" d="M668.91,1169.63c0,0-5.92,8.72-10.9,17.28c-15.92-9.81-15.93-29.52-14.71-39.73L668.91,1169.63z"/>
			<path class="st17" d="M669.62,1180.88c0,0-38.65-21.51-24.89-45.37s18.04-42.71,43.3-29.99c25.26,12.72,24.76,24.57,22.1,33.65
				C707.48,1148.25,680.03,1185.86,669.62,1180.88z"/>
			<path class="st16" d="M716.67,1125.25c-1.77-10.59-7.15-11.61-10.9-10.9c-14.27-23.6-37.59-14.39-37.59-14.39
				c-12.45,15.63-30.46,18.3-30.46,18.3s4.49,8.34,22.96,13.51c5.64,1.58,12.05,0.62,18.23-1.46c-12.82,7.15-26.23,9.89-26.23,9.89
				c24.35,2.23,47.52-20.03,49.92-22.42c1.12,3.45,3.09,10.67,1.91,15.95c-1.6,7.18-7.97,20.17-4.08,21.86
				C700.43,1155.59,719.32,1141.14,716.67,1125.25z"/>
			<path class="st15" d="M363.37,1735.17h-68.43c0,0-1.64-10.43,1.93-18.34c3.42-7.59,8.79-11.04,7.5-20.23
				c4.35,4.48,11.43,9.49,21.33,8.16c1.21,1.96,7.82,12.48,11.87,15.39C342.06,1723.36,362,1722.22,363.37,1735.17z"/>
			<path class="st18" d="M629.51,1290.52c-8.81,3.07-21.16,4.76-33.8,6.13c-17.99,1.97-36.57,3.3-46.3,7.19
				c-1.9,0.75-7.43,3.07-12.98,7.08v0.01c0,0-0.14,0.08-0.38,0.29c-1.84,1.34-3.68,2.89-5.36,4.63c-2.58,2.66-4.83,5.76-6.28,9.32
				c-3.57,8.82,1.16,33.26,4.19,46.62c1.22,5.38-1.32,10.93-6.21,13.47c-6.84,3.54-13.56,6.81-20.17,9.79
				c-0.35,0.16-0.69,0.31-1.04,0.47c0.06-1.36,0.09-2.71,0.09-4.03c0.01-9.22-1.16-16.89-1.16-16.89
				c-1.63,9.3-7.75,19.35-13.47,27.09c-91.83,36.85-155.98,20.83-154.93,2.47c3.62-63.73,46.6-117.94,46.6-117.94
				c80.15-93.21,242.29-117.75,242.29-117.75s7.76-0.93,17.13,10.32c13.48,16.22,14.15,20.45,14.15,20.45
				S655.42,1281.48,629.51,1290.52z"/>
			<path class="st14" d="M595.71,1296.65c-17.99,1.96-36.57,3.31-46.3,7.19c-3.98-59.42,24.07-104.12,24.07-104.12
				S591.77,1274.16,595.71,1296.65z"/>
			<path class="st17" d="M614.6,1188.22c0,0-45.09,4.46-48.71,33.76c-3.62,29.3,43.23,148.65,49.94,159.45
				c12.21,19.67,84.14,87.11,84.14,87.11l13.26-8.03c0,0-51.02-86.37-58.92-94.45C641.92,1353.37,629.87,1198.37,614.6,1188.22z"/>
			<path class="st18" d="M637.71,1244.2c0,0,4.63-75.55-53.19-57.28c-57.82,18.27,8.97,148.21,8.97,148.21s33.94-1.68,45.97-31.29
				L637.71,1244.2z"/>
			<path class="st14" d="M528.59,1371.79c1.22,5.38-1.32,10.93-6.21,13.47c-6.84,3.54-13.56,6.81-20.17,9.79
				c-0.35-1.13-0.67-2.31-0.96-3.56c-1.04-4.65-1.52-10.22-1.16-16.89c1.53-28.21,20.74-49.57,30.59-58.75
				c-2.58,2.66-4.83,5.76-6.28,9.32C520.84,1333.99,525.57,1358.43,528.59,1371.79z"/>
			<path class="st14" d="M620.58,1168.49c0,0,7.06-8.92,11.83-8.64c0,0,19.3,27.01,19.45,39.41
				C651.86,1199.26,627.79,1167.23,620.58,1168.49z"/>
			<path class="st19" d="M805.7,1429.88c0,0-10.26,0.18-12.48-0.14c-2.17-0.31-5.08-1.26-8-1.36c-2.87-0.11-5.51,0.83-8.21,1.38
				c-0.4,0.08-0.81,0.12-1.22,0.12h-17.02c0,0-1.71-0.82-3.58-3.82c-0.81-1.3-0.92-4.4-2.75-5.42c-10.3-5.75,17.12-2.5,17.12-2.5
				s17.22-0.31,18.81,0.87C791.2,1421.15,806.34,1429.07,805.7,1429.88z"/>
			<path class="st19" d="M758.77,1429.89c0,0,10.45,3.02,13.29,4.95l3,1.89c0,0,1.73-1.94-1-4.09c-1.44-1.13-5.42-4.45-5.55-8.26
				C768.38,1420.58,756.59,1423.9,758.77,1429.89z"/>
			<path class="st17" d="M713.23,1460.51c0,0,7.47,6.63,13.14,8.03c5.68,1.4,12.13,17.66,13.16,19.98c1.03,2.32-5.42-1.03-8-4.99
				c-2.58-3.96-4.34-5.51-5.1-4.65c-0.75,0.86,0.45,11.7,4.75,17.72c4.3,6.02,6.88,11.36,3.79,11.01c-3.1-0.34-21.51-4.82-25.29-16
				c-3.79-11.18-1.01-11.58-9.71-23.08C691.27,1457.04,713.23,1460.51,713.23,1460.51z"/>
		</g>
	</g>
	<g>
		<path class="st20" d="M1496.72,921.16c-0.07-1.99-1.62-23.47-34.33-24.6c0,0,16.09,1.92,18.87,8.99c0,0-10.96-8.74-19.88-5.93
			c-8.92,2.81-14.16,18.44-14.21,23.58c-0.05,5.14,4.9,21.71,10.57,23.12c2.14,0.53,4.62,0.39,6.86,0.01
			c-1.51,2.35-2.98,4.95-4.39,7.84c-13.06,26.8,0.41,52.99,11.46,50.1c7.09-1.86,9.09,10.24,9.09,10.24l68.87-55.75
			C1549.61,958.78,1524.32,906.43,1496.72,921.16z"/>
		<path class="st18" d="M1614.61,1205.74c-0.64,1.47-3.55,8.42-8.25,15.48c-3.81,5.73-8.82,11.53-14.74,14.52
			c-4.55-2.2-12.75-5.43-16.23-7.57c-12.58-7.68-30.51-29.47-45.16-52.82c-2.24-3.56-4.39-7.16-6.44-10.75
			c-0.45-0.66-0.78-1.33-1.11-1.99c-5.21-9.29-9.42-18.54-11.86-27l26.62-56.88c0.1,0.1,8.27,4.93,15.48,25.65
			c10.72,30.83,28.11,74.62,40.18,88.01c2.81,3.12,11.06,7.84,21.04,12.86v0.01C1614.33,1205.58,1614.5,1205.74,1614.61,1205.74z"/>
		<path class="st14" d="M1606.36,1221.22c-3.81,5.73-8.82,11.53-14.74,14.52c-4.55-2.2-12.75-5.43-16.23-7.57
			c-12.58-7.68-30.51-29.47-45.16-52.82c0.55-7.34,38.98,30.37,43.86,37.2C1577.77,1217.7,1596.79,1220.26,1606.36,1221.22z"/>
		<g>
			<path class="st16" d="M1670.62,1669.57l-5.37,49.67c-1.05,9.82-9.97,17-19.79,15.93l-49.67-5.36c-9.82-1.06-17-9.98-15.93-19.8
				l5.36-49.67c0.98-9.03,8.57-15.82,17.43-16.03c0.78-0.02,1.57,0.01,2.37,0.1l49.66,5.36
				C1664.51,1650.83,1671.67,1659.74,1670.62,1669.57z"/>
			<path class="st15" d="M1642.67,1668.16c-35.15,1.95-42.33,62.14-46.88,61.65c-9.82-1.06-17-9.98-15.93-19.8l5.36-49.67
				c0.98-9.03,8.57-15.82,17.43-16.03C1633.61,1655.6,1660.33,1667.18,1642.67,1668.16z"/>
			<path class="st9" d="M1797.69,1061.58l-66.94,377.38l-37.77,212.9c-2.18,12.27-13.5,20.77-25.9,19.43l-60.98-6.58l-13.77-1.48
				c-17.3-1.87-30.16-16.89-29.34-34.28l9.79-207.04l18.09-382.65l127.5,13.77L1797.69,1061.58z"/>
			<path class="st11" d="M1718.36,1053.02l-65,371.34l-39.56,226.04c-1,5.72-3.8,10.68-7.71,14.31l-13.77-1.48
				c-17.3-1.87-30.16-16.89-29.34-34.28l9.79-207.04l18.09-382.65L1718.36,1053.02z"/>
			<polygon class="st24" points="1800.47,1035.8 1797.69,1061.58 1718.36,1053.02 1590.87,1039.25 1593.65,1013.47 1721.96,1027.33 
							"/>
			<path class="st25" d="M1730.75,1438.96l-38.01,214.28c-2.04,11.5-12.64,19.46-24.26,18.21l-57.43-6.2l-23.94-2.59
				c-14.37-1.55-25.04-14.02-24.36-28.46l10.04-212.29l81.74,8.83L1730.75,1438.96z"/>
			<path class="st23" d="M1654.52,1430.73l-39.92,225.09c-0.61,3.43-1.83,6.6-3.55,9.42l-23.94-2.59
				c-14.37-1.55-25.04-14.02-24.36-28.46l10.04-212.29L1654.52,1430.73z"/>
			<polygon class="st26" points="1721.96,1027.33 1718.36,1053.02 1590.87,1039.25 1593.65,1013.47 			"/>
		</g>
		<path class="st16" d="M1520.69,1710.72l-14.63,5.45c0,0-63.54-88.12-71.36-165.66c-1.4-13.84,1.47-43.19,0.38-49.46
			c-0.5-2.93-1.12-6.45-1.83-10.49c-2.07-11.84-4.91-28.03-8.16-46.47c-7.48-42.43-17.16-96.68-24.69-136.56l3.94-1.27l42.65-13.76
			l8.81-27.99l31.76-8.36c0,0,7.09,13.88,13.44,79.43c1.17,8.6,2.23,18.08,3.03,28.36c2.47,31.39,2.65,70.32-3.02,114.83
			c-1.46,11.39-7.5,56.18-6.8,70.04C1497.43,1612.21,1520.69,1710.72,1520.69,1710.72z"/>
		<path class="st15" d="M1504.05,1363.96l-68.96,137.09c-0.5-2.93-1.12-6.45-1.83-10.49c-2.07-11.84-4.91-28.03-8.16-46.47
			c-7.48-42.43-17.16-96.68-24.69-136.56l3.94-1.27l42.65-13.76l8.81-27.99l31.76-8.36c0,0,7.09,13.88,13.44,79.43
			C1502.18,1344.19,1503.25,1353.67,1504.05,1363.96z"/>
		<path class="st16" d="M1473.71,1273.75l-1.6-13.69c-26.75,7.1-98.2-19.85-98.2-19.85s-25.91,22.77-22.51,77.37
			c1.66,26.65,4.69,139.88,7.86,173.38c1.14,12.14-6.74,43.39-9.9,51.83c-31.09,82.85,4.79,184.88,4.79,184.88l9.31-3.75
			c0,0,58.91-213.56,64.98-236.19c11.48-42.77,20.73-98.42,26.88-141.37C1456.17,1346.4,1473.71,1273.75,1473.71,1273.75z"/>
		<path class="st17" d="M1494,1114.92c-45.98,2.52-35.88-66.02-33.07-65.67c5.63-2.94,15.73-17.21,21.57-41.08l1.98,0.92l33.18,15.6
			c0,0-3.52,10.8-6.13,21.13c-2.03,8.08-3.49,15.9-2.27,18.08c2.62,1.06,4.18,1.73,4.18,1.73s0,0.01,0.01,0.04
			C1513.79,1066.51,1506.27,1114.25,1494,1114.92z"/>
		<path class="st19" d="M1517.66,1024.69c0,0-3.53,10.79-6.13,21.13c-19.39-5.41-25.28-25.8-27.05-36.72L1517.66,1024.69z"/>
		<path class="st17" d="M1521.75,1036.11c0,0-46.4-10.74-39.27-39.53c7.13-28.79,5.95-49.57,35.87-43.93
			c29.93,5.64,32.94,18.04,32.89,28.23C1551.2,991.08,1534,1038.16,1521.75,1036.11z"/>
		<path class="st20" d="M1553.85,964.54c-4.99-10.43-10.86-9.88-14.53-8.03c-21.8-20.17-43.18-3.69-43.18-3.69
			c-8.23,19.88-26.07,28.01-26.07,28.01s7.13,7.3,27.79,7.14c6.31-0.05,12.66-2.95,18.43-6.94c-11.14,11.22-24.19,18.04-24.19,18.04
			c25.86-4.95,43.2-34.89,44.98-38.07c2.19,3.24,6.38,10.12,6.73,15.94c0.48,7.9-2.24,23.25,2.29,23.83
			C1546.09,1000.77,1561.33,980.19,1553.85,964.54z"/>
		<path class="st15" d="M1408.28,1735.28h-73.68c0,0-1.77-11.23,2.08-19.75c3.69-8.17,9.46-11.89,8.08-21.78
			c4.68,4.82,12.31,10.22,22.96,8.79c1.31,2.12,8.42,13.44,12.78,16.57C1385.33,1722.56,1406.8,1721.33,1408.28,1735.28z"/>
		<path class="st15" d="M1566.47,1735.28h-73.68c0,0-2.75-11.75,2.08-19.75c4.28-7.08,2.64-11.11-0.53-16.96
			c3.34,1.37,7.66,2.61,12.41,2.34c3.67-0.21,7.55-1.88,10.96-3.85c3.17,3.62,16.75,19,20.99,22.05
			C1543.52,1722.56,1564.99,1721.33,1566.47,1735.28z"/>
		<path class="st18" d="M1537.42,1078.73l-12.08,162.25l-7.39,99.35c-11.37,3.53-22.18,6.3-32.45,8.42
			c-0.67-8.33-3.37-18.29-3.37-18.29c0.12,5.22-6,15.22-9.62,20.66c-94.35,15.11-138.58-26.04-138.58-26.04
			c3.67-36.43,19.57-110.12,38.6-171.89c3.96-12.85,8.06-25.18,12.21-36.56c9.43-25.86,15.43-39.37,20.51-49.83
			c9.68-19.9,52.93-18.65,52.93-18.65c8.33,30.02,31.22,48.74,31.22,48.74c12.21-7.17,21.29-32.37,21.29-32.37L1537.42,1078.73z"/>
		<path class="st17" d="M1613.14,1248.66c-6.1-0.03-15.72-0.45-21.28-2.58c0,0,17.77-0.25,13.99-5.87
			c-0.69-1.02-9.52-0.25-19.38-0.25c-4.04,0-14.04,5.54-13.52,5.8c-7.14-0.94-13.64-2.33-15.74-2.78c-0.55-0.11-0.77-0.22-0.77-0.22
			l-6.31,18.38c0,0,1.33,0.33,3.65,0.77c5.87,1.44,17.93,4.54,29.34,8.97c15.94,6.31,27.67-1.54,32.99-7.08
			c3.37-3.52,6.03-8.19,5.85-11.58C1621.75,1248.51,1616.86,1248.68,1613.14,1248.66z"/>
		<path class="st21" d="M1467.73,1042.59c0,0-7.85,0.53-9.53,5.55c0,0,10.24,41.23,31.22,48.74L1467.73,1042.59z"/>
		<path class="st21" d="M1489.41,1096.87c0,0,19.57-32.56,19.49-37.45c0,0,8.09,3.14,7.58,8.16
			C1516.49,1067.59,1499.61,1094.62,1489.41,1096.87z"/>
		<path class="st14" d="M1435.68,1082.2c0.57,1.95,71.2,114.72,72.74,137.18c1.54,22.46-29.7,9.76-30.19,6.83
			C1477.75,1223.29,1435.68,1082.2,1435.68,1082.2z"/>
		<path class="st14" d="M1525.35,1240.97l-7.39,99.35c-101.05-29.11-106.6-242.33-106.6-242.33l62.45,112.74l51,29.48
			C1524.8,1240.21,1524.99,1240.47,1525.35,1240.97z"/>
		<path class="st17" d="M1570.28,1250.07l-3.88,14.17c0,0-4.87-0.89-12.62-2.32c-2.32-0.45-3.65-0.78-3.65-0.78
			c-6.2-1.21-13.61-2.87-21.69-4.65h-0.12c-13.84-3.32-29.33-7.3-42.39-11.74c-1.17-0.41-2.32-0.82-3.45-1.23
			c-7.72-2.85,7.21-42.05,13.96-37.18c1.79,1.3,3.71,2.64,5.72,4.01c11.2,7.61,25.45,16.08,38.12,23.22
			c6.2,3.54,12.07,6.76,16.94,9.41C1565.07,1247.3,1570.28,1250.07,1570.28,1250.07z"/>
		<path class="st18" d="M1502.16,1210.35c0,0,0.81,26.77-24.25,39.79c-28.97-10.45-44.46-53.65-56.42-83.32
			c-1.66-4.09-3.21-8.19-4.75-12.17c-5.54-14.83-9.97-29.45-12.62-42.07c-1.66-7.53-2.76-14.39-2.99-20.04
			c-0.11-1.99-0.22-3.88-0.11-5.64c0.21-32.1,22.92-35.42,25.9-31.77c3.76,4.54,7.74,11.95,11.84,20.92
			c6.31,14.27,12.95,32.77,19.15,51.14c3.44,10.08,6.76,20.15,10.08,29.45c1.88,5.64,3.77,10.96,5.54,15.83
			c3.44,9.3,6.53,16.83,9.29,21.59c1.78,3.11,6.86,7.42,13.62,12.29C1498.22,1207.64,1500.14,1208.98,1502.16,1210.35z"/>
		<path class="st18" d="M1614.75,1205.57c-0.03,0.12-0.08,0.18-0.15,0.18c0.04-0.09,0.07-0.16,0.09-0.21
			C1614.78,1205.36,1614.8,1205.36,1614.75,1205.57z"/>
	</g>
	<g>
		<g>
			<path class="st16" d="M922.75,1706.84c0,7.07-2.89,13.49-7.56,18.16c-4.66,4.66-11.09,7.56-18.16,7.56H775.61
				c-14.14,0-25.71-11.58-25.71-25.71c0-7.07,2.89-13.49,7.55-18.16c4.66-4.65,11.09-7.55,18.16-7.55h121.43
				C911.17,1681.14,922.75,1692.71,922.75,1706.84z"/>
			<path class="st27" d="M860.11,1706.84c0,7.07-2.89,13.49-7.55,18.16c-4.66,4.66-11.09,7.56-18.16,7.56h-58.79
				c-14.14,0-25.71-11.58-25.71-25.71c0-7.07,2.89-13.49,7.55-18.16c4.66-4.65,11.09-7.55,18.16-7.55h58.79
				C848.54,1681.14,860.11,1692.71,860.11,1706.84z"/>
			<path class="st28" d="M899.09,1694.95H783.27c-2,0-3.64-1.64-3.64-3.64v-0.82c0-2,1.64-3.64,3.64-3.64h115.82
				c2,0,3.64,1.64,3.64,3.64v0.82C902.74,1693.31,901.1,1694.95,899.09,1694.95z"/>
		</g>
		<g>
			<path class="st7" d="M819.13,1634.02c3.36,6.7,3.67,14.16,1.46,20.8c-2.21,6.63-6.92,12.43-13.62,15.79l-115.09,57.67
				c-13.4,6.71-29.86,1.24-36.58-12.16c-3.36-6.7-3.67-14.16-1.47-20.79c2.21-6.63,6.92-12.42,13.62-15.78l115.09-57.67
				C795.95,1615.15,812.42,1620.62,819.13,1634.02z"/>
			<path class="st6" d="M759.76,1663.77c3.36,6.7,3.67,14.16,1.47,20.8c-2.21,6.63-6.92,12.43-13.62,15.79l-55.73,27.93
				c-13.4,6.71-29.86,1.24-36.58-12.16c-3.36-6.7-3.67-14.16-1.47-20.79c2.21-6.63,6.92-12.42,13.62-15.78l55.73-27.93
				C736.59,1644.9,753.05,1650.37,759.76,1663.77z"/>
			<path class="st29" d="M791.06,1633.98l-109.78,55.01c-1.9,0.95-4.23,0.18-5.18-1.72l-0.39-0.78c-0.95-1.9-0.18-4.23,1.72-5.18
				l109.78-55.01c1.9-0.95,4.23-0.18,5.18,1.72l0.39,0.78C793.73,1630.69,792.96,1633.03,791.06,1633.98z"/>
		</g>
	</g>
	<g>
		<g>
			<path class="st17" d="M2155.74,1108.58c2.22,2.54,2.5,5.38,1.4,8.4c0,0.01-0.01,0.03-0.02,0.04c-2.03,5.6-8.73,11.86-16.51,18.11
				c-0.99,0.8-1.88,1.53-2.65,2.21c-0.2,0.18-0.41,0.35-0.6,0.53c-0.16,0.14-0.31,0.28-0.46,0.41c-7.26,6.69-4.53,8.22-17.56,21.79
				c-14.86,15.46-25.1,15.74-28.01,14.33c-2.46-1.2,2.54-9.4,8.09-18.62c0.27-0.44,0.53-0.89,0.81-1.34
				c0.74-1.23,1.47-2.47,2.21-3.7c6.5-11.09,4.83-16.3,3.29-32.81c-1.25-13.42-20.87-74.96-20.87-74.96l28.48-4.91
				c0,0,8.58,49,18.03,56.55c5.05,4.02,10.71,4.07,15.57,7.06c0.34,0.21,0.68,0.42,1.01,0.64
				C2150.71,1104.14,2153.52,1106.03,2155.74,1108.58z"/>
			<path class="st15" d="M2155.74,1108.58c2.22,2.54,2.5,5.38,1.4,8.4c0,0.01-0.01,0.03-0.02,0.04c-2.48,5.6-9.01,11.82-16.53,18.05
				c-0.98,0.82-1.85,1.57-2.62,2.27c-0.2,0.18-0.41,0.35-0.6,0.53c-0.16,0.14-0.31,0.28-0.46,0.41c-7.26,6.69-4.53,8.22-17.56,21.79
				c-14.86,15.46-25.1,15.74-28.01,14.33c-2.46-1.2,2.54-9.4,8.09-18.62c2.89-1.06,16.33-6.52,26.49-19.52
				c8.95-11.42,14.92-26.09,21.01-34.59c0.34,0.21,0.68,0.42,1.01,0.64C2150.71,1104.14,2153.52,1106.03,2155.74,1108.58z"/>
			<path class="st17" d="M1926.08,1090.79c-1.76,8.79-14.29,7.33-28.29,3.9c-14-3.42-10.67,0.65-30.6-1.56s-25.96-9.64-26.57-12.6
				c-0.54-2.63,9.3-3.56,19.86-4.77c1.33-0.15,2.66-0.31,4-0.48c11.92-1.5,20.66-9.19,31.49-15.51
				c10.26-5.99,25.57-30.37,25.57-30.37l27.33,2.17c0,0-14.34,21.78-19.89,31.25c-3.26,5.57-3.09,12.94-2.68,18.62
				C1926.5,1084.53,1926.7,1087.69,1926.08,1090.79z"/>
			<path class="st15" d="M1897.78,1094.69c-14-3.42-10.67,0.65-30.6-1.56s-25.96-9.64-26.57-12.6c-0.54-2.63,9.3-3.56,19.86-4.77
				l0.1,0.2c0,0,11.95,8.47,28.54,8.87c13.52,0.33,27.84-3.54,37.17-3.39c0.21,3.09,0.41,6.25-0.21,9.35
				C1924.32,1099.58,1911.79,1098.11,1897.78,1094.69z"/>
			<path class="st15" d="M2030.8,916.05l25.55,68.74l33.35,89.76c0,0,9.05,0.87,17.72-1.62c7.98-2.31,17.14-8.34,17.14-8.34
				s-9.26-96.37-26.54-151.7c-4.43-14.2-9.39-25.69-14.86-32.15C2056.37,849.09,2030.8,916.05,2030.8,916.05z"/>
			<path class="st16" d="M2056.78,806.88c16.74-5.4,64.47,1.53,112.42,10.92l10.04-16.56l103.57-8.09c0,0,34.18,75.79,15.47,124.08
				c-2.75,7.1-8.21,11.65-17.53,11.8c0,0-1.51,0-1.51,0c0,0-61.64-0.04-81.66-0.04c-51.51,0-109.01-35.41-116.45-36.89
				c-12.17-2.44-17.04,21.92-29.22,47.48c-12.17,25.57-114.45,113.23-114.45,113.23s-15.72,0.16-22.21-2.28
				c-6.98-2.62-9.54-6.02-9.54-6.02S2019.03,819.05,2056.78,806.88z"/>
			<path class="st15" d="M2150.38,657.24c32.67,26.56,111.36,72.6,111.79,72.4c0,0,25.21,15.1,42.41,7.69
				c28.67-12.35,50.68-55.59,11.03-103.44c-19.78-23.86-36.17-31.72-32.33-63.44c4.17-34.37-11.35-77.58-50.91-79.39
				c-3.31-0.15-23.34-2.83-37.64,1.66C2158.31,504.16,2097.38,639.64,2150.38,657.24z"/>
			<path class="st18" d="M2289.88,804.39c-2.13,5.89-58.13,11.13-89.99,9.02c-10.12-0.66-17.82-2.08-20.56-4.44
				c-11.36-9.87-10.23,11.84-11.79-92.04c-0.75-50.67,43-95.79,43-95.79s3.49,21.64,46.88-4.12c1.54-0.9,18.63,24.4,35.07,55.56
				C2310.61,706.98,2292.06,798.34,2289.88,804.39z"/>
			<path class="st16" d="M2056.35,984.79l33.35,89.76c0,0,9.05,0.87,17.72-1.62c7.98-2.31,17.14-8.34,17.14-8.34
				s-9.26-96.37-26.54-151.7L2056.35,984.79z"/>
			<path class="st18" d="M2210.53,621.12c0,0-39.61,9.72-49.88,26.79c-12.51,20.79-74.91,114.54-74.91,114.54
				s61.51,21.76,71.99,11.27c10.48-10.48,36.48-97.27,36.48-97.27L2210.53,621.12z"/>
			<path class="st17" d="M2257.51,617.08c0.17,0.02-15.98,14.9-27.82,19.2c-4.63,1.69-12.33,3.54-12.33,3.54s-6.18-6.25-6.27-6.34
				c-5.49-5.13,0.02-6.61-0.8-16.3c-0.04-0.46-0.08-0.93-0.13-1.4c-1.11-10.85-4.24-22.73-4.45-23.5c-0.01-0.02-0.01-0.03-0.01-0.03
				l38.33-10.96l-1.23,2.12C2245.16,603.3,2252.31,616.49,2257.51,617.08z"/>
			<path class="st30" d="M2244.04,581.29c-3.72,11.14-13.86,26.09-34.54,29.31c-1.99-11.95-3.58-17.54-3.79-18.32
				c-0.01-0.02-0.01-0.03-0.01-0.03L2244.04,581.29z"/>
			<path class="st17" d="M2199.33,603.79c0,0,51.67-3.44,49.03-35.58c-2.64-32.14,2.26-54.23-30.84-53.4
				c-33.1,0.84-38.5,13.62-40.23,24.57C2175.56,550.32,2185.82,603.85,2199.33,603.79z"/>
			<path class="st15" d="M2190.04,514.24c0,0,12.84,37.67,43.32,42.05c22.23,3.19,31.07-2.82,31.07-2.82s-12.41-11.79-19.14-29.93
				c-1.98-5.35-6.67-9.24-12.3-10.11C2217.15,510.98,2196.72,500.5,2190.04,514.24z"/>
			<path class="st15" d="M2200.99,520.91c0,0-9.22,3.73-15.66,17.5c-3.52,7.53-6.06,25.45-3.89,32.84c0,0-14.86-34.37-4.1-49.86
				C2188.75,504.95,2200.99,520.91,2200.99,520.91z"/>
			<path class="st21" d="M2210.29,617.18c0,0,3.16,19.08,7.07,22.64c0,0-9.9-3.66-14.61-16.47
				C2202.75,623.34,2206.22,617.61,2210.29,617.18z"/>
			<path class="st14" d="M2173.43,682.05c0,0-28.85,34.61-25.3,47.15c3.55,12.54,23.53,12.54,23.53,12.54s-3.73-26.71,0-40.61
				C2175.4,687.23,2177.74,681.23,2173.43,682.05z"/>
			<path class="st14" d="M2257.51,772.26c0,0,22.26-15.81,21.71-30.52c-0.54-14.72,0.02-41.72,3.92-37.94
				c3.9,3.78,16.22,34.12,15.04,42.71c-1.19,8.59-10.78,34.11-15.86,35.2S2257.51,772.26,2257.51,772.26z"/>
			<path class="st18" d="M2175.75,828.89c0,0,31.28,97.79,110.63,109.42c0,0,28.17-27.62,25.68-90.11
				C2309.57,785.7,2175.75,828.89,2175.75,828.89z"/>
			<g>
				<path class="st31" d="M2445.39,857.3l-15.16,41.78c-3.93,10.82-15.88,16.4-26.69,12.48l-399.75-145.07
					c-18.42-6.69-36.17-15.1-53-25.12l-54.04-32.19l-70.03-41.71c-12.13-7.23-24.92-13.29-38.2-18.11l-89.5-32.48
					c-3.32-1.2-5.03-4.87-3.83-8.19c0.6-1.66,1.82-2.92,3.3-3.61s3.23-0.82,4.89-0.22l73.11,26.53
					c24.17,8.77,49.13,15.24,74.52,19.32l63.28,10.15l65.68,10.53c16.98,2.72,33.66,7.05,49.82,12.92l403.14,146.3
					C2443.73,834.53,2449.31,846.48,2445.39,857.3z"/>
				<path class="st2" d="M2445.39,857.3l-15.16,41.78c-3.93,10.82-15.88,16.4-26.69,12.48l-399.75-145.07
					c-18.42-6.69-36.17-15.1-53-25.12l-54.04-32.19c-0.3-8.99,0.98-17.65,3.98-25.9c2.99-8.24,7.56-15.72,13.56-22.42l65.68,10.53
					c16.98,2.72,33.66,7.05,49.82,12.92l403.14,146.3C2443.73,834.53,2449.31,846.48,2445.39,857.3z"/>
				<path class="st6" d="M2445.39,857.3l-15.16,41.78c-3.93,10.82-15.88,16.4-26.69,12.48l-43.28-15.71l29.38-80.96l43.28,15.71
					C2443.73,834.53,2449.31,846.48,2445.39,857.3z"/>
				
					<rect x="2071.18" y="750.57" transform="matrix(0.94 0.3411 -0.3411 0.94 389.0709 -680.5513)" class="st32" width="116.87" height="30.89"/>
				<path class="st16" d="M1746.63,620.55l-4.36,12.01l-43.27-15.7c-3.32-1.2-5.03-4.87-3.83-8.19c0.6-1.66,1.82-2.92,3.3-3.61
					s3.23-0.82,4.89-0.22L1746.63,620.55z"/>
			</g>
			<path class="st17" d="M1989.54,762.95c0,0-1.18-17.3,5.36-16.62c8.02,0.84,16.55,19.87,12.64,23.55
				C2003.62,773.56,1989.62,767.22,1989.54,762.95z"/>
			<path class="st18" d="M2257.42,617.02c0,0,40.99,2.68,51.24,18.67c10.25,15.99,43.16,107.06,37.83,134.93
				c-5.33,27.88-79.88,74.76-79.88,74.76l-7.93-17.06c0,0,43.61-71.86,39.5-81.81C2282.98,709.74,2257.42,617.02,2257.42,617.02z"/>
			<path class="st17" d="M2268.44,834.16l-9.76-5.85c0,0-6.05-2.42-9.61-1.91c-3.57,0.51-12.03-0.99-12.3,0.4
				c-0.27,1.38,8.74,7.3,8.74,7.3l0.32-0.07c-5.06,7.75-24.29,9.51-25.68,12.43c-1.69,3.54,6.58,6.86,11.07,8.79
				c4.49,1.92,15.96,3.68,22.58-1.35c4.84-3.68,12.8-8.52,12.8-8.52L2268.44,834.16z"/>
			<path class="st21" d="M2249.45,608.24c0,0-22.7,28.54-32.09,31.58c0,0,26.67,0,45.5-22.26
				C2262.87,617.55,2256.57,608.33,2249.45,608.24z"/>
		</g>
	</g>
	<g>
		<g>
			<path class="st33" d="M2044.64,1410.99v275.51c0,27.4-22.2,49.61-49.6,49.61h-132.54c-27.4,0-49.61-22.21-49.61-49.61v-275.51
				c0-13.71,5.56-26.11,14.53-35.09c8.97-8.97,21.37-14.53,35.08-14.53c5.71,0,10.56-3.77,12.21-8.93c0.38-1.22,0.59-2.51,0.59-3.86
				v-25.98c0-1.22,0.21-2.37,0.62-3.43c1.39-3.75,4.99-6.42,9.21-6.42h88.55c1.68,0,3.26,0.49,4.58,1.33
				c2.4,1.53,3.99,4.2,3.99,7.25v27.26c0,7.06,5.71,12.79,12.79,12.79C2022.45,1361.37,2044.64,1383.58,2044.64,1410.99z"/>
		</g>
		<g>
			<path class="st34" d="M2044.64,1410.99v275.51c0,27.4-22.2,49.61-49.6,49.61h-88.37c-27.4,0-49.61-22.21-49.61-49.61v-275.51
				c0-13.71,5.56-26.11,14.53-35.09c8.97-8.97,21.37-14.53,35.08-14.53c5.71,0,10.56-3.77,12.21-8.93c0.38-1.22,0.59-2.51,0.59-3.86
				v-25.98c0-1.22,0.22-2.37,0.62-3.43c1.39-3.75,4.99-6.42,9.21-6.42h44.38c1.68,0,3.26,0.49,4.58,1.33
				c2.4,1.53,3.99,4.2,3.99,7.25v27.26c0,7.06,5.71,12.79,12.79,12.79C2022.45,1361.37,2044.64,1383.58,2044.64,1410.99z"/>
		</g>
		<path class="st6" d="M1987.78,1346.69h-121.85v-23.25c0-9.99,8.1-18.08,18.08-18.08h85.68c9.99,0,18.08,8.1,18.08,18.08V1346.69z"
			/>
		<rect x="1812.9" y="1454.23" class="st16" width="231.75" height="101.35"/>
	</g>
	<g>
		<g>
			<path class="st35" d="M2389.25,1665.78c0,17.57-13.47,32.51-31.29,34.03l-378.78,32.17c-14.15,1.2-27-6.39-33.16-18.22h-0.01
				c-1.31-2.51-2.33-5.21-2.99-8.06c-0.37-1.58-0.63-3.21-0.77-4.87c-0.36-4.18,0.06-8.25,1.13-12.08c0.12-0.45,0.25-0.89,0.4-1.31
				c0.68-2.19,1.61-4.27,2.72-6.24c5.37-9.53,15.19-16.31,26.91-17.32l378.78-32.17c17.37-1.48,32.8,10.31,36.31,26.93
				c0.3,1.36,0.51,2.78,0.63,4.21C2389.2,1663.84,2389.25,1664.82,2389.25,1665.78z"/>
			<path class="st35" d="M1965.12,1700.03c0,4.49-2.29,8.55-5.83,10.94c-1.8,1.22-3.94,2.01-6.26,2.2l-7,0.59h-0.01l-27.91,2.37
				c-5.51,0.46-10.52-2.51-12.89-7.16c-0.76-1.47-1.25-3.12-1.39-4.88c-0.62-7.26,4.78-13.66,12.05-14.28l27.27-2.32l0.64-0.05
				l7-0.59c0.4-0.04,0.79-0.05,1.17-0.05c6.78,0.03,12.53,5.23,13.11,12.09C1965.1,1699.28,1965.12,1699.66,1965.12,1700.03z"/>
		</g>
		<g>
			<path class="st36" d="M2388.49,1658.65c-3.71,13.35-15.4,23.61-30.01,24.86l-378.78,32.19c-7.42,0.63-14.48-1.16-20.42-4.72
				c-3.8-2.25-7.13-5.25-9.8-8.79c-2.94-3.89-5.06-8.43-6.1-13.42c-0.09-0.41-0.18-0.84-0.24-1.26l0.64-0.05
				c0.68-2.19,1.61-4.27,2.72-6.24c5.37-9.53,15.19-16.31,26.91-17.32l378.78-32.17
				C2369.55,1630.24,2384.99,1642.03,2388.49,1658.65z"/>
			<path class="st36" d="M1953.4,1692.82c0,3.62-1.48,6.95-3.91,9.36c-1.74,1.72-3.95,2.99-6.46,3.53
				c-0.57,0.12-1.13,0.21-1.71,0.26l-34.93,2.96c-0.4,0.04-0.78,0.05-1.17,0.05c-0.76-1.47-1.25-3.12-1.39-4.88
				c-0.62-7.26,4.78-13.66,12.05-14.28l27.27-2.32l0.64-0.05c0.68-2.19,1.61-4.27,2.72-6.24c2.32,1.26,4.24,3.21,5.46,5.6
				c0.76,1.47,1.25,3.12,1.39,4.88C1953.39,1692.07,1953.4,1692.45,1953.4,1692.82z"/>
		</g>
		<path class="st15" d="M2515.07,1652.3c0.33,20.65-15.5,38.48-36.37,40.26l-125.67,10.69l-1.33-79.67l0.44-0.04l119.82-10.18
			c18.29-1.56,34.85,9.69,40.77,26.25c1.15,3.15,1.89,6.5,2.19,9.99C2515,1650.5,2515.04,1651.4,2515.07,1652.3z"/>
		<path class="st16" d="M2512.74,1639.61c-5.07,14.21-18.09,24.95-34.04,26.31l-125.67,10.69l-0.89-53.07l119.82-10.18
			C2490.26,1611.8,2506.82,1623.05,2512.74,1639.61z"/>
		<path class="st6" d="M2335.66,1713.37l-8.19-96.39c-0.92-10.78,7.08-20.26,17.86-21.18l2.58-0.22
			c10.78-0.92,20.26,7.08,21.18,17.86l8.19,96.39c0.92,10.78-7.08,20.26-17.86,21.18l-2.58,0.22
			C2346.06,1732.15,2336.58,1724.15,2335.66,1713.37z"/>
	</g>
	<path class="st37" d="M3106.04,1743.48H191.52c-2.26,0-4.1-1.85-4.1-4.1v-3.7c0-2.26,1.85-4.1,4.1-4.1h2914.52
		c2.26,0,4.1,1.85,4.1,4.1v3.7C3110.14,1741.63,3108.3,1743.48,3106.04,1743.48z"/>
</g>
</svg>
